<mxfile host="65bd71144e">
    <diagram id="TLqlpEwYbJGXmHmKZ_lC" name="Page-1">
        <mxGraphModel dx="1848" dy="909" grid="0" gridSize="10" guides="1" tooltips="1" connect="1" arrows="1" fold="1" page="0" pageScale="1" pageWidth="827" pageHeight="1169" background="#FDF6E3" math="0" shadow="0">
            <root>
                <mxCell id="0"/>
                <mxCell id="1" parent="0"/>
                <mxCell id="6" value="" style="edgeStyle=none;html=1;" parent="1" target="5" edge="1">
                    <mxGeometry relative="1" as="geometry">
                        <mxPoint x="77" y="264" as="sourcePoint"/>
                    </mxGeometry>
                </mxCell>
                <mxCell id="8" value="" style="edgeStyle=none;html=1;" parent="1" source="5" target="7" edge="1">
                    <mxGeometry relative="1" as="geometry"/>
                </mxCell>
                <mxCell id="5" value="" style="whiteSpace=wrap;html=1;verticalAlign=top;fillColor=#0050ef;strokeColor=#001DBC;fontColor=#ffffff;labelBackgroundColor=#ffffff;glass=0;shadow=0;rounded=1;" parent="1" vertex="1">
                    <mxGeometry x="165" y="234" width="120" height="60" as="geometry"/>
                </mxCell>
                <mxCell id="16" value="" style="edgeStyle=none;html=1;fontFamily=Times New Roman;fontColor=#ffffff;" parent="1" source="7" target="15" edge="1">
                    <mxGeometry relative="1" as="geometry"/>
                </mxCell>
                <mxCell id="7" value="" style="whiteSpace=wrap;html=1;verticalAlign=top;fillColor=#0050ef;strokeColor=#001DBC;fontColor=#ffffff;labelBackgroundColor=#ffffff;glass=0;shadow=0;rounded=1;" parent="1" vertex="1">
                    <mxGeometry x="374" y="234" width="120" height="60" as="geometry"/>
                </mxCell>
                <mxCell id="9" value="Place Order" style="text;html=1;strokeColor=none;fillColor=none;align=center;verticalAlign=middle;whiteSpace=wrap;rounded=0;shadow=0;glass=0;labelBackgroundColor=none;sketch=0;fontColor=#00000D;fontFamily=Times New Roman;fontSize=14;" parent="1" vertex="1">
                    <mxGeometry x="78" y="232.5" width="73" height="30" as="geometry"/>
                </mxCell>
                <mxCell id="10" value="Order Reserved" style="text;html=1;strokeColor=none;fillColor=none;align=center;verticalAlign=middle;whiteSpace=wrap;rounded=0;shadow=0;glass=0;labelBackgroundColor=none;sketch=0;fontColor=#ffffff;fontFamily=Times New Roman;fontSize=14;" parent="1" vertex="1">
                    <mxGeometry x="175" y="249" width="88" height="30" as="geometry"/>
                </mxCell>
                <mxCell id="11" value="Process Payment" style="text;html=1;strokeColor=none;fillColor=none;align=center;verticalAlign=middle;whiteSpace=wrap;rounded=0;shadow=0;glass=0;labelBackgroundColor=none;sketch=0;fontColor=#00000D;fontFamily=Times New Roman;fontSize=14;" parent="1" vertex="1">
                    <mxGeometry x="295" y="231" width="74" height="30" as="geometry"/>
                </mxCell>
                <mxCell id="12" value="Payment Processed" style="text;html=1;strokeColor=none;fillColor=none;align=center;verticalAlign=middle;whiteSpace=wrap;rounded=0;shadow=0;glass=0;labelBackgroundColor=none;sketch=0;fontColor=#ffffff;fontFamily=Times New Roman;fontSize=14;" parent="1" vertex="1">
                    <mxGeometry x="389" y="249" width="95" height="30" as="geometry"/>
                </mxCell>
                <mxCell id="20" value="" style="edgeStyle=none;html=1;fontFamily=Times New Roman;fontColor=#ffffff;" parent="1" source="15" target="19" edge="1">
                    <mxGeometry relative="1" as="geometry"/>
                </mxCell>
                <mxCell id="15" value="" style="whiteSpace=wrap;html=1;verticalAlign=top;fillColor=#0050ef;strokeColor=#001DBC;fontColor=#ffffff;labelBackgroundColor=#ffffff;glass=0;shadow=0;rounded=1;" parent="1" vertex="1">
                    <mxGeometry x="582" y="231" width="120" height="60" as="geometry"/>
                </mxCell>
                <mxCell id="17" value="Create Shipping" style="text;html=1;strokeColor=none;fillColor=none;align=center;verticalAlign=middle;whiteSpace=wrap;rounded=0;shadow=0;glass=0;labelBackgroundColor=none;sketch=0;fontColor=#00000D;fontFamily=Times New Roman;fontSize=14;" parent="1" vertex="1">
                    <mxGeometry x="502" y="232.5" width="74" height="27" as="geometry"/>
                </mxCell>
                <mxCell id="18" value="Shipment created" style="text;html=1;strokeColor=none;fillColor=none;align=center;verticalAlign=middle;whiteSpace=wrap;rounded=0;shadow=0;glass=0;labelBackgroundColor=none;sketch=0;fontColor=#FFFFFF;fontFamily=Times New Roman;fontSize=14;" parent="1" vertex="1">
                    <mxGeometry x="590" y="247" width="95" height="30" as="geometry"/>
                </mxCell>
                <mxCell id="43" value="" style="edgeStyle=orthogonalEdgeStyle;curved=1;html=1;fontFamily=Times New Roman;fontColor=#ffffff;" parent="1" source="19" target="42" edge="1">
                    <mxGeometry relative="1" as="geometry"/>
                </mxCell>
                <mxCell id="19" value="" style="whiteSpace=wrap;html=1;verticalAlign=top;fillColor=#0050ef;strokeColor=#001DBC;fontColor=#ffffff;labelBackgroundColor=#ffffff;glass=0;shadow=0;rounded=1;" parent="1" vertex="1">
                    <mxGeometry x="787" y="232.5" width="120" height="60" as="geometry"/>
                </mxCell>
                <mxCell id="28" value="" style="endArrow=classic;html=1;fontFamily=Times New Roman;fontColor=#ffffff;curved=1;exitX=0.15;exitY=0.033;exitDx=0;exitDy=0;exitPerimeter=0;entryX=0.75;entryY=0;entryDx=0;entryDy=0;" parent="1" source="7" target="7" edge="1">
                    <mxGeometry width="50" height="50" relative="1" as="geometry">
                        <mxPoint x="390" y="191" as="sourcePoint"/>
                        <mxPoint x="468" y="181" as="targetPoint"/>
                        <Array as="points">
                            <mxPoint x="395" y="169"/>
                        </Array>
                    </mxGeometry>
                </mxCell>
                <mxCell id="29" value="Retry x times" style="text;html=1;strokeColor=none;fillColor=none;align=center;verticalAlign=middle;whiteSpace=wrap;rounded=0;shadow=0;glass=0;labelBackgroundColor=none;sketch=0;fontColor=#00000D;fontFamily=Times New Roman;" parent="1" vertex="1">
                    <mxGeometry x="437" y="180" width="73" height="30" as="geometry"/>
                </mxCell>
                <mxCell id="30" value="Ship Package" style="text;html=1;strokeColor=none;fillColor=none;align=center;verticalAlign=middle;whiteSpace=wrap;rounded=0;shadow=0;glass=0;labelBackgroundColor=none;sketch=0;fontColor=#00000D;fontFamily=Times New Roman;fontSize=14;" parent="1" vertex="1">
                    <mxGeometry x="706" y="224" width="74" height="34" as="geometry"/>
                </mxCell>
                <mxCell id="31" value="Delivery Initiated" style="text;html=1;strokeColor=none;fillColor=none;align=center;verticalAlign=middle;whiteSpace=wrap;rounded=0;shadow=0;glass=0;labelBackgroundColor=none;sketch=0;fontColor=#FFFFFF;fontFamily=Times New Roman;fontSize=14;" parent="1" vertex="1">
                    <mxGeometry x="799.5" y="246" width="95" height="30" as="geometry"/>
                </mxCell>
                <mxCell id="35" value="Email Shipment Details" style="text;html=1;strokeColor=none;fillColor=none;align=center;verticalAlign=middle;whiteSpace=wrap;rounded=0;shadow=0;glass=0;labelBackgroundColor=none;sketch=0;fontColor=#00000D;fontFamily=Times New Roman;fontSize=14;" parent="1" vertex="1">
                    <mxGeometry x="907" y="207.5" width="77" height="52" as="geometry"/>
                </mxCell>
                <mxCell id="45" value="" style="edgeStyle=orthogonalEdgeStyle;curved=1;html=1;fontFamily=Times New Roman;fontColor=#ffffff;" parent="1" source="42" target="44" edge="1">
                    <mxGeometry relative="1" as="geometry"/>
                </mxCell>
                <mxCell id="93" style="edgeStyle=none;html=1;" edge="1" parent="1" source="42" target="92">
                    <mxGeometry relative="1" as="geometry"/>
                </mxCell>
                <mxCell id="42" value="" style="whiteSpace=wrap;html=1;verticalAlign=top;fillColor=#0050ef;strokeColor=#001DBC;fontColor=#ffffff;labelBackgroundColor=#ffffff;glass=0;shadow=0;rounded=1;" parent="1" vertex="1">
                    <mxGeometry x="987" y="232.5" width="120" height="60" as="geometry"/>
                </mxCell>
                <mxCell id="44" value="" style="whiteSpace=wrap;html=1;verticalAlign=top;fillColor=#d5e8d4;strokeColor=#82b366;labelBackgroundColor=#ffffff;glass=0;shadow=0;rounded=1;" parent="1" vertex="1">
                    <mxGeometry x="1192" y="232.5" width="120" height="60" as="geometry"/>
                </mxCell>
                <mxCell id="46" value="Shipping Details Email" style="text;html=1;strokeColor=none;fillColor=none;align=center;verticalAlign=middle;whiteSpace=wrap;rounded=0;shadow=0;glass=0;labelBackgroundColor=none;sketch=0;fontColor=#FFFFFF;fontFamily=Times New Roman;fontSize=14;" parent="1" vertex="1">
                    <mxGeometry x="997" y="247" width="95" height="30" as="geometry"/>
                </mxCell>
                <mxCell id="47" value="Mark Completion" style="text;html=1;strokeColor=none;fillColor=none;align=center;verticalAlign=middle;whiteSpace=wrap;rounded=0;shadow=0;glass=0;labelBackgroundColor=none;sketch=0;fontColor=#00000D;fontFamily=Times New Roman;fontSize=14;" parent="1" vertex="1">
                    <mxGeometry x="1107" y="227.5" width="74" height="27" as="geometry"/>
                </mxCell>
                <mxCell id="48" value="Order Completed" style="text;html=1;strokeColor=none;fillColor=#d5e8d4;align=center;verticalAlign=middle;whiteSpace=wrap;rounded=0;shadow=0;glass=0;labelBackgroundColor=none;sketch=0;fontFamily=Times New Roman;fontSize=14;" parent="1" vertex="1">
                    <mxGeometry x="1213" y="249" width="74" height="27" as="geometry"/>
                </mxCell>
                <mxCell id="55" value="" style="edgeStyle=orthogonalEdgeStyle;curved=1;html=1;fontFamily=Times New Roman;fontColor=#ffffff;" parent="1" source="52" target="54" edge="1">
                    <mxGeometry relative="1" as="geometry"/>
                </mxCell>
                <mxCell id="52" value="" style="whiteSpace=wrap;html=1;fontFamily=Times New Roman;verticalAlign=top;fillColor=#f0a30a;strokeColor=#BD7000;fontColor=#000000;labelBackgroundColor=#ffffff;rounded=1;shadow=0;glass=0;sketch=0;" parent="1" vertex="1">
                    <mxGeometry x="794" y="432" width="120" height="60" as="geometry"/>
                </mxCell>
                <mxCell id="58" value="" style="edgeStyle=orthogonalEdgeStyle;curved=1;html=1;fontFamily=Times New Roman;fontColor=#ffffff;" parent="1" source="54" target="57" edge="1">
                    <mxGeometry relative="1" as="geometry"/>
                </mxCell>
                <mxCell id="54" value="" style="whiteSpace=wrap;html=1;fontFamily=Times New Roman;verticalAlign=top;fillColor=#f0a30a;strokeColor=#BD7000;fontColor=#000000;labelBackgroundColor=#ffffff;rounded=1;shadow=0;glass=0;sketch=0;" parent="1" vertex="1">
                    <mxGeometry x="592" y="432" width="120" height="60" as="geometry"/>
                </mxCell>
                <mxCell id="60" value="" style="edgeStyle=orthogonalEdgeStyle;curved=1;html=1;fontFamily=Times New Roman;fontColor=#ffffff;" parent="1" source="57" target="59" edge="1">
                    <mxGeometry relative="1" as="geometry"/>
                </mxCell>
                <mxCell id="57" value="" style="whiteSpace=wrap;html=1;fontFamily=Times New Roman;verticalAlign=top;fillColor=#f0a30a;strokeColor=#BD7000;fontColor=#000000;labelBackgroundColor=#ffffff;rounded=1;shadow=0;glass=0;sketch=0;" parent="1" vertex="1">
                    <mxGeometry x="390" y="432" width="120" height="60" as="geometry"/>
                </mxCell>
                <mxCell id="71" value="" style="edgeStyle=orthogonalEdgeStyle;curved=1;html=1;fontFamily=Times New Roman;fontColor=#ffffff;" parent="1" source="59" target="70" edge="1">
                    <mxGeometry relative="1" as="geometry"/>
                </mxCell>
                <mxCell id="59" value="" style="whiteSpace=wrap;html=1;fontFamily=Times New Roman;verticalAlign=top;fillColor=#f0a30a;strokeColor=#BD7000;fontColor=#000000;labelBackgroundColor=#ffffff;rounded=1;shadow=0;glass=0;sketch=0;" parent="1" vertex="1">
                    <mxGeometry x="188" y="432" width="120" height="60" as="geometry"/>
                </mxCell>
                <mxCell id="65" style="edgeStyle=orthogonalEdgeStyle;curved=1;html=1;fontFamily=Times New Roman;fontColor=#ffffff;entryX=0.5;entryY=0;entryDx=0;entryDy=0;" parent="1" target="52" edge="1">
                    <mxGeometry relative="1" as="geometry">
                        <mxPoint x="854" y="406" as="targetPoint"/>
                        <mxPoint x="854" y="310" as="sourcePoint"/>
                    </mxGeometry>
                </mxCell>
                <mxCell id="67" style="edgeStyle=orthogonalEdgeStyle;curved=1;html=1;fontFamily=Times New Roman;fontColor=#ffffff;" parent="1" target="59" edge="1">
                    <mxGeometry relative="1" as="geometry">
                        <mxPoint x="248" y="313" as="sourcePoint"/>
                    </mxGeometry>
                </mxCell>
                <mxCell id="68" style="edgeStyle=orthogonalEdgeStyle;curved=1;html=1;fontFamily=Times New Roman;fontColor=#ffffff;" parent="1" target="57" edge="1">
                    <mxGeometry relative="1" as="geometry">
                        <mxPoint x="450" y="313" as="sourcePoint"/>
                    </mxGeometry>
                </mxCell>
                <mxCell id="69" style="edgeStyle=orthogonalEdgeStyle;curved=1;html=1;fontFamily=Times New Roman;fontColor=#ffffff;" parent="1" target="54" edge="1">
                    <mxGeometry relative="1" as="geometry">
                        <mxPoint x="652" y="313" as="sourcePoint"/>
                    </mxGeometry>
                </mxCell>
                <mxCell id="70" value="" style="whiteSpace=wrap;html=1;fontFamily=Times New Roman;verticalAlign=top;fillColor=#e51400;strokeColor=#B20000;fontColor=#ffffff;labelBackgroundColor=#ffffff;rounded=1;shadow=0;glass=0;sketch=0;" parent="1" vertex="1">
                    <mxGeometry x="29" y="385" width="92" height="53" as="geometry"/>
                </mxCell>
                <mxCell id="72" value="Order&amp;nbsp; Cancelled" style="text;html=1;strokeColor=none;fillColor=none;align=center;verticalAlign=middle;whiteSpace=wrap;rounded=0;shadow=0;glass=0;labelBackgroundColor=none;sketch=0;fontColor=#ffffff;fontFamily=Times New Roman;fontSize=14;" parent="1" vertex="1">
                    <mxGeometry x="31" y="394" width="88" height="30" as="geometry"/>
                </mxCell>
                <mxCell id="73" value="Order Released" style="text;html=1;strokeColor=none;fillColor=none;align=center;verticalAlign=middle;whiteSpace=wrap;rounded=0;shadow=0;glass=0;labelBackgroundColor=none;sketch=0;fontColor=#00000D;fontFamily=Times New Roman;fontSize=14;" parent="1" vertex="1">
                    <mxGeometry x="202" y="445" width="88" height="30" as="geometry"/>
                </mxCell>
                <mxCell id="74" value="Payment Refunded" style="text;html=1;strokeColor=none;fillColor=none;align=center;verticalAlign=middle;whiteSpace=wrap;rounded=0;shadow=0;glass=0;labelBackgroundColor=none;sketch=0;fontColor=#00000D;fontFamily=Times New Roman;fontSize=14;" parent="1" vertex="1">
                    <mxGeometry x="406" y="447" width="88" height="30" as="geometry"/>
                </mxCell>
                <mxCell id="75" value="Shipment Cancelled" style="text;html=1;strokeColor=none;fillColor=none;align=center;verticalAlign=middle;whiteSpace=wrap;rounded=0;shadow=0;glass=0;labelBackgroundColor=none;sketch=0;fontColor=#00000D;fontFamily=Times New Roman;fontSize=14;" parent="1" vertex="1">
                    <mxGeometry x="608" y="445" width="88" height="30" as="geometry"/>
                </mxCell>
                <mxCell id="76" value="Delivery Cancelled" style="text;html=1;strokeColor=none;fillColor=none;align=center;verticalAlign=middle;whiteSpace=wrap;rounded=0;shadow=0;glass=0;labelBackgroundColor=none;sketch=0;fontColor=#00000D;fontFamily=Times New Roman;fontSize=14;" parent="1" vertex="1">
                    <mxGeometry x="812" y="447" width="88" height="30" as="geometry"/>
                </mxCell>
                <mxCell id="77" value="Cancel Delivery" style="text;html=1;strokeColor=none;fillColor=none;align=center;verticalAlign=middle;whiteSpace=wrap;rounded=0;shadow=0;glass=0;labelBackgroundColor=none;sketch=0;fontColor=#00000D;fontFamily=Times New Roman;fontSize=14;" parent="1" vertex="1">
                    <mxGeometry x="865" y="340" width="88" height="30" as="geometry"/>
                </mxCell>
                <mxCell id="78" value="Void Shipment" style="text;html=1;strokeColor=none;fillColor=none;align=center;verticalAlign=middle;whiteSpace=wrap;rounded=0;shadow=0;glass=0;labelBackgroundColor=none;sketch=0;fontColor=#00000D;fontFamily=Times New Roman;fontSize=14;" parent="1" vertex="1">
                    <mxGeometry x="657" y="340" width="88" height="30" as="geometry"/>
                </mxCell>
                <mxCell id="79" value="Issue Refund" style="text;html=1;strokeColor=none;fillColor=none;align=center;verticalAlign=middle;whiteSpace=wrap;rounded=0;shadow=0;glass=0;labelBackgroundColor=none;sketch=0;fontColor=#00000D;fontFamily=Times New Roman;fontSize=14;" parent="1" vertex="1">
                    <mxGeometry x="455" y="343" width="88" height="30" as="geometry"/>
                </mxCell>
                <mxCell id="80" value="Make Item Available" style="text;html=1;strokeColor=none;fillColor=none;align=center;verticalAlign=middle;whiteSpace=wrap;rounded=0;shadow=0;glass=0;labelBackgroundColor=none;sketch=0;fontColor=#00000D;fontFamily=Times New Roman;fontSize=14;" parent="1" vertex="1">
                    <mxGeometry x="268" y="343" width="76" height="30" as="geometry"/>
                </mxCell>
                <mxCell id="82" value="Void Shipment" style="text;html=1;strokeColor=none;fillColor=none;align=center;verticalAlign=middle;whiteSpace=wrap;rounded=0;shadow=0;glass=0;labelBackgroundColor=none;sketch=0;fontColor=#00000D;fontFamily=Times New Roman;fontSize=14;" parent="1" vertex="1">
                    <mxGeometry x="718" y="477" width="73" height="25" as="geometry"/>
                </mxCell>
                <mxCell id="83" value="Issue Refund" style="text;html=1;strokeColor=none;fillColor=none;align=center;verticalAlign=middle;whiteSpace=wrap;rounded=0;shadow=0;glass=0;labelBackgroundColor=none;sketch=0;fontColor=#00000D;fontFamily=Times New Roman;fontSize=14;" parent="1" vertex="1">
                    <mxGeometry x="521" y="477" width="61" height="23" as="geometry"/>
                </mxCell>
                <mxCell id="84" value="Make Item Available" style="text;html=1;strokeColor=none;fillColor=none;align=center;verticalAlign=middle;whiteSpace=wrap;rounded=0;shadow=0;glass=0;labelBackgroundColor=none;sketch=0;fontColor=#00000D;fontFamily=Times New Roman;fontSize=14;" parent="1" vertex="1">
                    <mxGeometry x="314" y="472" width="76" height="30" as="geometry"/>
                </mxCell>
                <mxCell id="85" value="Order marked as Cancelled" style="text;html=1;strokeColor=none;fillColor=none;align=center;verticalAlign=middle;whiteSpace=wrap;rounded=0;shadow=0;glass=0;labelBackgroundColor=none;sketch=0;fontColor=#00000D;fontFamily=Times New Roman;fontSize=14;" parent="1" vertex="1">
                    <mxGeometry x="84" y="463" width="89" height="37" as="geometry"/>
                </mxCell>
                <mxCell id="87" value="" style="points=[[0.145,0.145,0],[0.5,0,0],[0.855,0.145,0],[1,0.5,0],[0.855,0.855,0],[0.5,1,0],[0.145,0.855,0],[0,0.5,0]];shape=mxgraph.bpmn.event;html=1;verticalLabelPosition=bottom;labelBackgroundColor=#FFFF33;verticalAlign=top;align=center;perimeter=ellipsePerimeter;outlineConnect=0;aspect=fixed;outline=boundInt;symbol=compensation;fillColor=#FFFF99;strokeColor=#d6b656;strokeWidth=1;" vertex="1" parent="1">
                    <mxGeometry x="234" y="279" width="32" height="32" as="geometry"/>
                </mxCell>
                <mxCell id="88" value="" style="points=[[0.145,0.145,0],[0.5,0,0],[0.855,0.145,0],[1,0.5,0],[0.855,0.855,0],[0.5,1,0],[0.145,0.855,0],[0,0.5,0]];shape=mxgraph.bpmn.event;html=1;verticalLabelPosition=bottom;labelBackgroundColor=#FFFF33;verticalAlign=top;align=center;perimeter=ellipsePerimeter;outlineConnect=0;aspect=fixed;outline=boundInt;symbol=compensation;fillColor=#FFFF99;strokeColor=#d6b656;strokeWidth=1;" vertex="1" parent="1">
                    <mxGeometry x="434" y="281" width="32" height="32" as="geometry"/>
                </mxCell>
                <mxCell id="89" value="" style="points=[[0.145,0.145,0],[0.5,0,0],[0.855,0.145,0],[1,0.5,0],[0.855,0.855,0],[0.5,1,0],[0.145,0.855,0],[0,0.5,0]];shape=mxgraph.bpmn.event;html=1;verticalLabelPosition=bottom;labelBackgroundColor=#FFFF33;verticalAlign=top;align=center;perimeter=ellipsePerimeter;outlineConnect=0;aspect=fixed;outline=boundInt;symbol=compensation;fillColor=#FFFF99;strokeColor=#d6b656;strokeWidth=1;" vertex="1" parent="1">
                    <mxGeometry x="636" y="281" width="32" height="32" as="geometry"/>
                </mxCell>
                <mxCell id="90" value="" style="points=[[0.145,0.145,0],[0.5,0,0],[0.855,0.145,0],[1,0.5,0],[0.855,0.855,0],[0.5,1,0],[0.145,0.855,0],[0,0.5,0]];shape=mxgraph.bpmn.event;html=1;verticalLabelPosition=bottom;labelBackgroundColor=#FFFF33;verticalAlign=top;align=center;perimeter=ellipsePerimeter;outlineConnect=0;aspect=fixed;outline=boundInt;symbol=compensation;fillColor=#FFFF99;strokeColor=#d6b656;strokeWidth=1;" vertex="1" parent="1">
                    <mxGeometry x="840" y="281" width="32" height="32" as="geometry"/>
                </mxCell>
                <mxCell id="91" value="" style="points=[[0.145,0.145,0],[0.5,0,0],[0.855,0.145,0],[1,0.5,0],[0.855,0.855,0],[0.5,1,0],[0.145,0.855,0],[0,0.5,0]];shape=mxgraph.bpmn.event;html=1;verticalLabelPosition=bottom;labelBackgroundColor=#ffffff;verticalAlign=top;align=center;perimeter=ellipsePerimeter;outlineConnect=0;aspect=fixed;outline=standard;symbol=message;fillColor=#d5e8d4;strokeColor=#82b366;" vertex="1" parent="1">
                    <mxGeometry x="25" y="239" width="50" height="50" as="geometry"/>
                </mxCell>
                <mxCell id="92" value="" style="points=[[0.145,0.145,0],[0.5,0,0],[0.855,0.145,0],[1,0.5,0],[0.855,0.855,0],[0.5,1,0],[0.145,0.855,0],[0,0.5,0]];shape=mxgraph.bpmn.event;html=1;verticalLabelPosition=bottom;labelBackgroundColor=#ffffff;verticalAlign=top;align=center;perimeter=ellipsePerimeter;outlineConnect=0;aspect=fixed;outline=throwing;symbol=compensation;fillColor=#f8cecc;strokeColor=#b85450;" vertex="1" parent="1">
                    <mxGeometry x="1022" y="435" width="50" height="50" as="geometry"/>
                </mxCell>
                <mxCell id="94" value="&lt;font style=&quot;color: rgb(255, 0, 0);&quot;&gt;Shipping Error&lt;/font&gt;" style="text;html=1;strokeColor=none;fillColor=none;align=center;verticalAlign=middle;whiteSpace=wrap;rounded=0;shadow=0;glass=0;labelBackgroundColor=none;sketch=0;fontColor=#00000D;fontFamily=Times New Roman;fontSize=14;" vertex="1" parent="1">
                    <mxGeometry x="1056" y="343" width="88" height="30" as="geometry"/>
                </mxCell>
                <mxCell id="97" value="&amp;nbsp; &amp;nbsp;&lt;div&gt;&lt;br&gt;&lt;/div&gt;" style="text;html=1;align=center;verticalAlign=middle;resizable=0;points=[];autosize=1;strokeColor=none;fillColor=none;" vertex="1" parent="1">
                    <mxGeometry x="269" y="876" width="28" height="41" as="geometry"/>
                </mxCell>
                <mxCell id="98" value="&lt;p style=&quot;language:en-FR;line-height:normal;margin-top:0pt;margin-bottom:0pt;&#xa;margin-right:0in;text-align:left;direction:ltr;unicode-bidi:embed&quot;&gt;&lt;span style=&quot;font-size:96.0pt;font-family:Arial;mso-ascii-font-family:&amp;quot;Apple Color Emoji&amp;quot;;&#xa;mso-fareast-font-family:Arial;mso-bidi-font-family:Arial;font-variant:normal;&#xa;color:black;text-transform:none;language:en-FR;font-weight:normal;font-style:&#xa;normal;mso-style-textfill-type:solid;mso-style-textfill-fill-color:black;&#xa;mso-style-textfill-fill-alpha:100.0%&quot;&gt;🤯&lt;/span&gt;&lt;/p&gt;" style="text;whiteSpace=wrap;html=1;" vertex="1" parent="1">
                    <mxGeometry x="556" y="577" width="156" height="190" as="geometry"/>
                </mxCell>
                <mxCell id="99" value="&lt;p style=&quot;language:en-FR;line-height:normal;margin-top:0pt;margin-bottom:0pt;&#xa;margin-right:0in;text-align:left;direction:ltr;unicode-bidi:embed&quot;&gt;&lt;span style=&quot;font-size:80.0pt;font-family:Arial;mso-ascii-font-family:&amp;quot;Apple Color Emoji&amp;quot;;&#xa;mso-fareast-font-family:Arial;mso-bidi-font-family:Arial;font-variant:normal;&#xa;color:black;text-transform:none;language:en-FR;font-weight:normal;font-style:&#xa;normal;mso-style-textfill-type:solid;mso-style-textfill-fill-color:black;&#xa;mso-style-textfill-fill-alpha:100.0%&quot;&gt;😤&lt;/span&gt;&lt;/p&gt;" style="text;whiteSpace=wrap;html=1;" vertex="1" parent="1">
                    <mxGeometry x="887" y="573" width="135" height="162" as="geometry"/>
                </mxCell>
                <mxCell id="100" value="&lt;p style=&quot;line-height: normal; margin-top: 0pt; margin-bottom: 0pt; direction: ltr; unicode-bidi: embed;&quot;&gt;&lt;span style=&quot;font-family: Arial; font-variant: normal; text-transform: none; font-weight: normal;&quot;&gt;&lt;font style=&quot;font-size: 115px;&quot;&gt;😵‍💫&lt;/font&gt;&lt;/span&gt;&lt;/p&gt;" style="text;whiteSpace=wrap;html=1;align=center;" vertex="1" parent="1">
                    <mxGeometry x="217.5" y="583" width="131" height="45" as="geometry"/>
                </mxCell>
            </root>
        </mxGraphModel>
    </diagram>
</mxfile>